<?xml version="1.0" encoding="iso-8859-1"?>
<!-- Generator: Adobe Illustrator 19.0.0, SVG Export Plug-In . SVG Version: 6.00 Build 0)  -->
<svg version="1.1" id="Capa_1" xmlns="http://www.w3.org/2000/svg" xmlns:xlink="http://www.w3.org/1999/xlink" x="0px" y="0px"
	 viewBox="0 0 512 512" style="enable-background:new 0 0 512 512;" xml:space="preserve">
<g>
	<g>
		<path d="M275.985,498.347l-25.6-34.133c-1.613-2.15-4.139-3.413-6.827-3.413H72.891c-2.688,0-5.214,1.263-6.827,3.413
			l-25.6,34.133c-1.937,2.586-2.253,6.042-0.811,8.934c1.451,2.893,4.403,4.719,7.637,4.719h221.867
			c3.234,0,6.187-1.826,7.629-4.719C278.237,504.388,277.922,500.932,275.985,498.347z M64.358,494.933l12.8-17.067h162.133
			l12.8,17.067H64.358z"/>
	</g>
</g>
<g>
	<g>
		<path d="M303.291,494.933H13.158c-4.71,0-8.533,3.823-8.533,8.533c0,4.71,3.823,8.534,8.533,8.534h290.133
			c4.71,0,8.533-3.823,8.533-8.533C311.824,498.757,308.002,494.933,303.291,494.933z"/>
	</g>
</g>
<g>
	<g>
		<path d="M175.291,34.133h-34.133c-4.71,0-8.533,3.823-8.533,8.533V435.2c0,4.71,3.823,8.533,8.533,8.533h34.133
			c4.71,0,8.533-3.823,8.533-8.533V42.667C183.825,37.956,180.002,34.133,175.291,34.133z M166.758,426.667h-17.067V51.2h17.067
			V426.667z"/>
	</g>
</g>
<g>
	<g>
		<path d="M209.425,426.667h-102.4c-4.71,0-8.533,3.823-8.533,8.533v34.133c0,4.71,3.823,8.533,8.533,8.533h102.4
			c4.71,0,8.533-3.823,8.533-8.533V435.2C217.958,430.49,214.135,426.667,209.425,426.667z M200.891,460.8h-85.333v-17.067h85.333
			V460.8z"/>
	</g>
</g>
<g>
	<g>
		<path d="M425.335,170.667l79.932-95.906c2.261-2.722,2.748-6.554,1.246-9.754c-1.408-2.995-4.983-5.274-8.294-5.274H175.291
			c-4.71,0-8.533,3.823-8.533,8.533v204.8c0,4.71,3.823,8.533,8.533,8.533h322.927c3.541,0,6.793-2.074,8.294-5.274
			c1.408-2.995,0.87-7.211-1.254-9.754L425.335,170.667z M183.825,264.533L183.825,264.533V76.8H481.34l-73.668,88.405
			c-2.637,3.157-2.637,7.757,0,10.923l73.668,88.405H183.825z"/>
	</g>
</g>
<g>
	<g>
		<path d="M158.225,0c-18.825,0-34.133,15.309-34.133,34.133v8.533c0,4.71,3.823,8.533,8.533,8.533h51.2
			c4.71,0,8.533-3.823,8.533-8.533v-8.533C192.358,15.309,177.049,0,158.225,0z M141.158,34.133c0-9.412,7.654-17.067,17.067-17.067
			c9.412,0,17.067,7.654,17.067,17.067H141.158z"/>
	</g>
</g>
<g>
	<g>
		<path d="M235.025,230.4h-59.733c-4.71,0-8.533,3.823-8.533,8.533s3.823,8.533,8.533,8.533h59.733c4.71,0,8.533-3.823,8.533-8.533
			S239.735,230.4,235.025,230.4z"/>
	</g>
</g>
<g>
	<g>
		<path d="M286.225,230.4h-17.067c-4.71,0-8.533,3.823-8.533,8.533s3.823,8.533,8.533,8.533h17.067c4.71,0,8.533-3.823,8.533-8.533
			S290.935,230.4,286.225,230.4z"/>
	</g>
</g>
<g>
	<g>
		<path d="M414.225,162.133h-17.067c-4.71,0-8.533,3.823-8.533,8.533c0,4.71,3.823,8.533,8.533,8.533h17.067
			c4.71,0,8.533-3.823,8.533-8.533C422.758,165.956,418.935,162.133,414.225,162.133z"/>
	</g>
</g>
<g>
	<g>
		<path d="M363.025,162.133h-17.067c-4.71,0-8.533,3.823-8.533,8.533c0,4.71,3.823,8.533,8.533,8.533h17.067
			c4.71,0,8.533-3.823,8.533-8.533C371.558,165.956,367.735,162.133,363.025,162.133z"/>
	</g>
</g>
<g>
</g>
<g>
</g>
<g>
</g>
<g>
</g>
<g>
</g>
<g>
</g>
<g>
</g>
<g>
</g>
<g>
</g>
<g>
</g>
<g>
</g>
<g>
</g>
<g>
</g>
<g>
</g>
<g>
</g>
</svg>
