<svg height="511pt" viewBox="1 -26 511.99998 511" width="511pt" xmlns="http://www.w3.org/2000/svg"><path d="m478.542969 106.875v316.875l-445.09375-30.59375v-286.28125c0-22.800781 18.472656-41.273438 41.273437-41.273438h362.546875c22.800781 0 41.273438 18.472657 41.273438 41.273438zm0 0" fill="#ccc"/><path d="m478.542969 106.871094v277.921875h-431.511719v-277.921875c0-22.796875 18.476562-41.273438 41.273438-41.273438h348.964843c22.800781 0 41.273438 18.476563 41.273438 41.273438zm0 0" fill="#e6e6e6"/><path d="m386.6875 280.597656c0 60.46875-20.449219 89.953125-52.621094 104.195313-25.621094 11.378906-58.679687 13.074219-94.78125 13.074219-36.101562 0-69.164062-1.695313-94.792968-13.074219-32.175782-14.242188-52.621094-43.726563-52.621094-104.195313 0-88.054687 43.351562-162.597656 103.152344-187.675781h-4.117188c-3.660156 0-6.980469-1.484375-9.375-3.886719-2.402344-2.402344-3.886719-5.714844-3.886719-9.382812 0-7.324219 5.9375-13.257813 13.261719-13.257813h10.28125c-.136719-.261719-.261719-.523437-.410156-.796875h77c-.144532.273438-.269532.535156-.40625.796875h10.28125c3.667968 0 6.980468 1.480469 9.371094 3.886719 2.40625 2.390625 3.886718 5.703125 3.886718 9.371094 0 7.324218-5.933594 13.269531-13.257812 13.269531h-4.105469c59.777344 25.078125 103.140625 99.621094 103.140625 187.675781zm0 0" fill="#ccc"/><path d="m447.199219 106.871094v254.9375h-382.402344v-254.9375c0-5.472656 4.449219-9.925782 9.925781-9.925782h362.546875c5.476563 0 9.929688 4.453126 9.929688 9.925782zm0 0" fill="#c4e2f2"/><path d="m386.6875 280.597656c0 38.011719-8.078125 63.769532-22.066406 81.210938h-250.683594c-13.992188-17.441406-22.066406-43.199219-22.066406-81.210938 0-83.757812 39.222656-155.292968 94.519531-183.652344h105.785156c55.277344 28.359376 94.511719 99.894532 94.511719 183.652344zm0 0" fill="#83b2c6"/><path d="m211.75 92.917969c-59.800781 25.074219-103.164062 99.625-103.164062 187.683593 0 108.640626 65.996093 117.265626 147.414062 117.265626 81.40625 0 147.402344-8.625 147.402344-117.265626 0-88.058593-43.363282-162.605468-103.152344-187.683593l-38.691406-15.710938" fill="#ff8e1d"/><path d="m253.785156 397.855469c-80.394531-.15625-145.199218-9.613281-145.199218-117.257813 0-88.054687 43.363281-162.609375 103.164062-187.675781h18.523438c-34.761719 25.066406-59.964844 99.621094-59.964844 187.675781 0 106.945313 37.167968 116.976563 83.476562 117.257813zm0 0" fill="#e2720e"/><path d="m294.085938 66.394531-41.402344 13.765625-34.78125-13.765625c-9.027344-17.796875-22.515625-49.738281-10.363282-61.878906 17.007813-17.011719 47.644532 25.496094 48.441407 26.613281.007812.019532.019531.019532.019531.019532s31.222656-43.875 48.453125-26.632813c12.152344 12.140625-1.339844 44.082031-10.367187 61.878906zm0 0" fill="#ff8e1d"/><path d="m241.839844 66.394531h-23.9375c-9.027344-17.796875-22.515625-49.738281-10.363282-61.878906 17.007813-17.011719 47.644532 25.496094 48.441407 26.613281-.734375-.417968-27.230469-15.714844-33.417969-.261718-3.699219 9.234374 8.578125 24.523437 19.277344 35.527343zm0 0" fill="#e2720e"/><path d="m317.628906 79.652344c0 7.324218-5.9375 13.269531-13.261718 13.269531h-96.746094c-3.65625 0-6.980469-1.484375-9.371094-3.886719-2.40625-2.402344-3.886719-5.714844-3.886719-9.382812 0-7.324219 5.933594-13.261719 13.257813-13.261719h96.746094c3.667968 0 6.980468 1.484375 9.375 3.886719 2.402343 2.394531 3.886718 5.707031 3.886718 9.375zm0 0" fill="#ed3618"/><path d="m317.628906 79.652344c0 7.324218-5.9375 13.269531-13.261718 13.269531h-58.429688c-3.667969 0-6.980469-1.484375-9.371094-3.886719-2.40625-2.402344-3.886718-5.714844-3.886718-9.382812 0-7.324219 5.933593-13.261719 13.257812-13.261719h58.429688c3.667968 0 6.980468 1.484375 9.375 3.886719 2.402343 2.394531 3.886718 5.707031 3.886718 9.375zm0 0" fill="#ff491f"/><path d="m289.40625 252.207031c-6.382812-6.601562-15.066406-10.480469-22.738281-13.394531v-45.992188c7.675781.859376 12.546875 3.335938 16.117187 5.148438 2.246094 1.140625 4.019532 2.039062 5.605469 2.039062 4.84375 0 7.484375-6.265624 7.484375-9.488281 0-3.773437-3.691406-7.109375-10.679688-9.648437-5.132812-1.863282-11.710937-3.171875-18.523437-3.683594v-9.734375c0-4.394531-3.574219-7.96875-7.96875-7.96875s-7.96875 3.574219-7.96875 7.96875v10.273437c-6.429687.839844-15.554687 3.035157-22.734375 8.726563-7.886719 6.253906-11.886719 15.316406-11.886719 26.9375 0 11.53125 3.890625 20.265625 11.886719 26.699219 6.378906 5.136718 14.394531 8.199218 22.734375 11.128906v53.585938c-13.214844-1.320313-19.851563-7.605469-24.253906-11.773438-2.496094-2.367188-4.300781-4.074219-6.292969-4.074219-3.957031 0-7.683594 5.347657-7.683594 9.488281 0 8.433594 14.890625 21.496094 38.230469 22.828126v10.675781c0 4.390625 3.574219 7.964843 7.96875 7.964843s7.964844-3.574218 7.964844-7.964843v-11.613281c9.609375-1.746094 17.320312-5.675782 22.917969-11.679688 6.570312-7.046875 9.902343-16.625 9.902343-28.464844 0-11.8125-3.300781-20.964844-10.082031-27.984375zm-6.492188 29.589844c0 6.4375-1.757812 11.675781-5.222656 15.574219-2.683594 3.015625-6.390625 5.1875-11.019531 6.449218v-46.222656c4.53125 2.191406 7.941406 4.597656 10.417969 7.347656 3.917968 4.351563 5.824218 9.863282 5.824218 16.851563zm-50.230468-70.011719c0-5.609375 1.929687-10.082031 5.730468-13.289062 2.988282-2.527344 7.132813-4.277344 12.320313-5.210938v39.710938c-11.148437-4.476563-18.050781-9.613282-18.050781-21.210938zm0 0" fill="#e2720e"/><path d="m512 393.15625v10.984375c0 30.574219-24.785156 55.367187-55.371094 55.367187h-401.269531c-30.574219 0-55.359375-24.792968-55.359375-55.367187v-10.984375zm0 0" fill="#ccc"/><path d="m512 393.15625v10.984375c0 30.574219-24.785156 55.367187-55.371094 55.367187h-305.660156c-30.585938 0-55.371094-24.792968-55.371094-55.367187v-10.984375zm0 0" fill="#e6e6e6"/><path d="m285.585938 424.503906h-59.171876c-14.386718 0-26.050781-11.664062-26.050781-26.050781v-5.292969h111.277344v5.292969c-.003906 14.386719-11.667969 26.050781-26.054687 26.050781zm0 0" fill="#ccc"/></svg>